<svg width="32" height="32" viewBox="0 0 32 32" fill="none" xmlns="http://www.w3.org/2000/svg">
<path d="M21.4788 16.5139C21.2308 16.0509 20.8601 15.6651 20.4073 15.3988C19.9448 15.141 19.424 15.0058 18.8946 15.0058C18.365 15.0058 17.8444 15.141 17.3819 15.3988C16.929 15.6651 16.5584 16.0509 16.3103 16.5139C16.2309 16.6558 16.1659 16.8052 16.1164 16.96H18.5697V19.4327H16.1455C16.1941 19.5606 16.2508 19.6853 16.3151 19.806C16.5633 20.2677 16.9341 20.652 17.3867 20.9163C17.8492 21.1741 18.37 21.3094 18.8994 21.3094C19.4289 21.3094 19.9496 21.1741 20.4121 20.9163C20.8603 20.6566 21.2292 20.2794 21.4788 19.8254C21.7401 19.3161 21.8763 18.7519 21.8763 18.1794C21.8763 17.607 21.7401 17.0427 21.4788 16.5333V16.5139ZM21.4788 16.5139C21.2308 16.0509 20.8601 15.6651 20.4073 15.3988C19.9448 15.141 19.424 15.0058 18.8946 15.0058C18.365 15.0058 17.8444 15.141 17.3819 15.3988C16.929 15.6651 16.5584 16.0509 16.3103 16.5139C16.2309 16.6558 16.1659 16.8052 16.1164 16.96H18.5697V19.4327H16.1455C16.1941 19.5606 16.2508 19.6853 16.3151 19.806C16.5633 20.2677 16.9341 20.652 17.3867 20.9163C17.8492 21.1741 18.37 21.3094 18.8994 21.3094C19.4289 21.3094 19.9496 21.1741 20.4121 20.9163C20.8603 20.6566 21.2292 20.2794 21.4788 19.8254C21.7401 19.3161 21.8763 18.7519 21.8763 18.1794C21.8763 17.607 21.7401 17.0427 21.4788 16.5333V16.5139ZM16 6.61221e-06C12.8355 6.61221e-06 9.74204 0.938393 7.11088 2.69649C4.4797 4.45459 2.42893 6.95345 1.21794 9.87704C0.00693305 12.8007 -0.309921 16.0177 0.307443 19.1214C0.924807 22.2251 2.44866 25.0761 4.6863 27.3137C6.92395 29.5513 9.77488 31.0752 12.8786 31.6926C15.9823 32.3099 19.1993 31.9931 22.123 30.782C25.0466 29.5711 27.5454 27.5203 29.3036 24.8891C31.0616 22.2579 32 19.1645 32 16C32 13.8976 31.5857 11.8158 30.7807 9.87374C29.9757 7.93154 28.7959 6.16707 27.3086 4.68115C25.8213 3.19522 24.0558 2.01698 22.1128 1.21376C20.17 0.410536 18.0878 -0.00190464 15.9854 6.61221e-06H16ZM24.2424 21.1054C23.7146 21.976 22.9584 22.6854 22.0557 23.1563C21.0766 23.6436 19.9979 23.8972 18.9042 23.8972C17.8107 23.8972 16.7319 23.6436 15.7527 23.1563C14.8478 22.6869 14.0895 21.9774 13.5612 21.1054C13.2484 20.5886 13.0239 20.0234 12.897 19.4327H8.53334V8.40243H11.6557V16.96H12.9019C13.0239 16.3413 13.2538 15.7489 13.5806 15.2097C14.1106 14.3404 14.8685 13.6328 15.7722 13.1636C16.7504 12.6734 17.8295 12.4182 18.9237 12.4182C20.0178 12.4182 21.0969 12.6734 22.0752 13.1636C22.9877 13.6365 23.7506 14.3541 24.2782 15.2362C24.8057 16.1183 25.077 17.1299 25.0619 18.1576C25.0625 19.2006 24.7684 20.2224 24.2134 21.1054H24.2424ZM20.4218 15.3988C19.9593 15.141 19.4386 15.0058 18.9091 15.0058C18.3796 15.0058 17.859 15.141 17.3964 15.3988C16.9436 15.6651 16.5729 16.0509 16.3249 16.5139C16.2454 16.6558 16.1805 16.8052 16.1309 16.96H18.5697V19.4327H16.1455C16.1941 19.5606 16.2508 19.6853 16.3151 19.806C16.5633 20.2677 16.9341 20.652 17.3867 20.9163C17.8492 21.1741 18.37 21.3094 18.8994 21.3094C19.4289 21.3094 19.9496 21.1741 20.4121 20.9163C20.8603 20.6566 21.2292 20.2794 21.4788 19.8254C21.7401 19.3161 21.8763 18.7519 21.8763 18.1794C21.8763 17.607 21.7401 17.0427 21.4788 16.5333C21.2297 16.0612 20.8535 15.6683 20.3927 15.3988H20.4218Z" fill="#7E57C2"/>
</svg>
